<?xml version="1.0" encoding="UTF-8" standalone="no"?>
<!-- Created with Inkscape (http://www.inkscape.org/) -->

<svg
   width="50"
   height="50"
   viewBox="0 0 50 50"
   version="1.1"
   id="svg1"
   sodipodi:docname="picture.svg"
   inkscape:version="1.3.2 (091e20e, 2023-11-25, custom)"
   xmlns:inkscape="http://www.inkscape.org/namespaces/inkscape"
   xmlns:sodipodi="http://sodipodi.sourceforge.net/DTD/sodipodi-0.dtd"
   xmlns="http://www.w3.org/2000/svg"
   xmlns:svg="http://www.w3.org/2000/svg">
  <sodipodi:namedview
     id="namedview1"
     pagecolor="#505050"
     bordercolor="#eeeeee"
     borderopacity="1"
     inkscape:showpageshadow="0"
     inkscape:pageopacity="0"
     inkscape:pagecheckerboard="0"
     inkscape:deskcolor="#d1d1d1"
     inkscape:document-units="px"
     showguides="false"
     inkscape:zoom="11.588215"
     inkscape:cx="22.134556"
     inkscape:cy="24.809687"
     inkscape:window-width="1920"
     inkscape:window-height="1009"
     inkscape:window-x="-8"
     inkscape:window-y="-8"
     inkscape:window-maximized="1"
     inkscape:current-layer="layer1" />
  <defs
     id="defs1" />
  <g
     inkscape:label="Слой 1"
     inkscape:groupmode="layer"
     id="layer1">
    <path
       id="rect1"
       style="opacity:1;fill:#ffffff;fill-opacity:1;stroke-width:1"
       d="M 6.6445312 0 C 2.9633888 0 2.3684734e-15 2.9633888 0 6.6445312 L 0 43.355469 C 0 47.036611 2.9633888 50 6.6445312 50 L 43.355469 50 C 47.036611 50 50 47.036611 50 43.355469 L 50 6.6445312 C 50 2.9633888 47.036611 2.3684734e-15 43.355469 0 L 6.6445312 0 z M 8.9492188 8.4570312 L 41.050781 8.4570312 C 42.676224 8.4570312 43.984375 9.7651822 43.984375 11.390625 L 43.984375 12.771484 C 43.984375 14.396927 42.676224 15.705078 41.050781 15.705078 L 8.9492188 15.705078 C 7.3237759 15.705078 6.015625 14.396927 6.015625 12.771484 L 6.015625 11.390625 C 6.015625 9.7651822 7.3237759 8.4570312 8.9492188 8.4570312 z M 8.9492188 21.375 L 41.050781 21.375 C 42.676223 21.375 43.984375 22.685106 43.984375 24.310547 L 43.984375 25.689453 C 43.984375 27.314894 42.676223 28.625 41.050781 28.625 L 8.9492188 28.625 C 7.3237775 28.625 6.015625 27.314894 6.015625 25.689453 L 6.015625 24.310547 C 6.015625 22.685106 7.3237775 21.375 8.9492188 21.375 z M 8.9492188 34.294922 L 41.050781 34.294922 C 42.676222 34.294922 43.984375 35.603075 43.984375 37.228516 L 43.984375 38.609375 C 43.984375 40.234814 42.676222 41.542969 41.050781 41.542969 L 8.9492188 41.542969 C 7.3237791 41.542969 6.015625 40.234814 6.015625 38.609375 L 6.015625 37.228516 C 6.015625 35.603075 7.3237791 34.294922 8.9492188 34.294922 z " />
  </g>
</svg>
