<?xml version="1.0" encoding="UTF-8" standalone="no"?>
<!-- Created with Inkscape (http://www.inkscape.org/) -->

<svg
   width="50"
   height="50"
   viewBox="0 0 50 50"
   version="1.1"
   id="svg1"
   sodipodi:docname="picture.svg"
   inkscape:version="1.3.2 (091e20e, 2023-11-25, custom)"
   xmlns:inkscape="http://www.inkscape.org/namespaces/inkscape"
   xmlns:sodipodi="http://sodipodi.sourceforge.net/DTD/sodipodi-0.dtd"
   xmlns="http://www.w3.org/2000/svg"
   xmlns:svg="http://www.w3.org/2000/svg">
  <sodipodi:namedview
     id="namedview1"
     pagecolor="#505050"
     bordercolor="#eeeeee"
     borderopacity="1"
     inkscape:showpageshadow="0"
     inkscape:pageopacity="0"
     inkscape:pagecheckerboard="0"
     inkscape:deskcolor="#d1d1d1"
     inkscape:document-units="px"
     showguides="false"
     inkscape:zoom="11.588215"
     inkscape:cx="31.368074"
     inkscape:cy="25.500044"
     inkscape:window-width="1920"
     inkscape:window-height="1009"
     inkscape:window-x="-8"
     inkscape:window-y="-8"
     inkscape:window-maximized="1"
     inkscape:current-layer="layer1" />
  <defs
     id="defs1" />
  <g
     inkscape:label="Слой 1"
     inkscape:groupmode="layer"
     id="layer1">
    <path
       id="path2"
       style="fill:#ffffff;stroke-width:5;stroke-linecap:round;stroke-linejoin:round;fill-opacity:1"
       d="M 25 0 A 25 25 0 0 0 0 25 A 25 25 0 0 0 25 50 A 25 25 0 0 0 50 25 A 25 25 0 0 0 25 0 z M 19.318359 6.0019531 C 20.02982 6.0019532 20.741843 6.2750468 21.287109 6.8203125 L 35.066406 20.599609 L 37.498047 23.03125 C 38.588568 24.121781 38.588578 25.878219 37.498047 26.96875 L 35.066406 29.400391 L 21.287109 43.179688 C 20.196577 44.270219 18.440141 44.270219 17.349609 43.179688 L 14.917969 40.748047 C 13.827427 39.657515 13.82939 37.901079 14.919922 36.810547 L 26.730469 25 L 14.917969 13.189453 C 13.827438 12.098922 13.827438 10.342484 14.917969 9.2519531 L 17.349609 6.8203125 C 17.894875 6.2750471 18.606899 6.0019531 19.318359 6.0019531 z " />
  </g>
</svg>
